<?xml version="1.0" encoding="utf-8"?>
<!-- Generator: Adobe Illustrator 27.7.0, SVG Export Plug-In . SVG Version: 6.00 Build 0)  -->
<svg version="1.1" id="Layer_1" xmlns="http://www.w3.org/2000/svg" xmlns:xlink="http://www.w3.org/1999/xlink" x="0px" y="0px"
	 viewBox="0 0 60 61" style="enable-background:new 0 0 60 61;" xml:space="preserve">
<style type="text/css">
	.st0{fill:none;}
	.st1{clip-path:url(#SVGID_00000163755794371634926480000002965484742666567867_);}
	.st2{fill-rule:evenodd;clip-rule:evenodd;fill:#FDF0EA;}
	.st3{fill-rule:evenodd;clip-rule:evenodd;fill:#FFFFFF;}
	.st4{fill:#FFD9A2;}
	.st5{fill-rule:evenodd;clip-rule:evenodd;fill:#FFD9A2;}
</style>
<rect y="0.1" class="st0" width="60" height="60"/>
<g>
	<g>
		<defs>
			<rect id="SVGID_1_" y="0.1" width="60" height="60"/>
		</defs>
		<clipPath id="SVGID_00000094597437263305621740000010439524291880415401_">
			<use xlink:href="#SVGID_1_"  style="overflow:visible;"/>
		</clipPath>
		<g style="clip-path:url(#SVGID_00000094597437263305621740000010439524291880415401_);">
			<path class="st2" d="M28.4,55.3c0.3,0.5,0.9,0.9,1.6,0.9c0.6,0,1.2-0.3,1.6-0.9c5.1-8.1,20.8-33.1,24.4-38.9
				c0.4-0.7,0.4-1.6-0.2-2.2c-2.1-2.4-7-8-8.7-9.9c-0.4-0.4-0.9-0.6-1.4-0.6c-4.6,0-26.7,0-31.4,0c-0.5,0-1.1,0.2-1.4,0.6
				c-1.7,1.9-6.6,7.6-8.7,9.9c-0.5,0.6-0.6,1.5-0.2,2.2C7.6,22.2,23.3,47.3,28.4,55.3z"/>
			<path class="st3" d="M3.8,15.3h52.4c-0.1-0.2-0.2-0.5-0.4-0.7c-2.1-2.4-7-8-8.7-9.9c-0.4-0.4-0.9-0.6-1.4-0.6
				c-4.6,0-26.7,0-31.4,0c-0.5,0-1.1,0.2-1.4,0.6c-1.7,1.9-6.6,7.6-8.7,9.9C4,14.8,3.9,15.1,3.8,15.3z"/>
			<path class="st2" d="M22.5,15.3L30,4.1H14.3c-0.2,0-0.4,0-0.5,0.1L22.5,15.3z M30,4.1l7.5,11.3l8.7-11.2
				c-0.2-0.1-0.3-0.1-0.5-0.1H30z"/>
			<path class="st3" d="M37.5,15.3h-15L30,4.1L37.5,15.3z"/>
			<path class="st3" d="M30,56.6l-7.5-41.3h15L30,56.6z"/>
			<path class="st2" d="M15,49.1l1.5,2.3l2.3,1.5l-2.3,1.5L15,56.6l-1.5-2.3l-2.3-1.5l2.3-1.5L15,49.1z"/>
			<path class="st2" d="M7.5,34.1L9,36.4l2.3,1.5L9,39.4l-1.5,2.3L6,39.4l-2.3-1.5L6,36.4L7.5,34.1z"/>
			<path class="st2" d="M51.3,40.4l1.5,2.3l2.3,1.5l-2.3,1.5l-1.5,2.3l-1.5-2.3l-2.3-1.5l2.3-1.5L51.3,40.4z"/>
			<path class="st4" d="M23.1,48.3c0.7,0,1.3-0.6,1.3-1.3s-0.6-1.3-1.3-1.3c-0.7,0-1.3,0.6-1.3,1.3S22.4,48.3,23.1,48.3z"/>
			<path class="st5" d="M5.3,16.6h16.1l7,36.9L26.3,50c-0.4-0.6-1.1-0.8-1.7-0.4c-0.6,0.4-0.8,1.1-0.4,1.7c0,0,2.4,3.8,3.2,5.1
				c0.6,0.9,1.6,1.5,2.6,1.5c1.1,0,2.1-0.6,2.6-1.5L57,17.5c0.7-1.2,0.6-2.7-0.3-3.7c-2.1-2.4-7-8-8.7-9.9c-0.6-0.7-1.5-1.1-2.4-1.1
				H14.3c-0.9,0-1.8,0.4-2.4,1.1c-1.7,1.9-6.6,7.6-8.7,9.9c-0.9,1-1,2.6-0.3,3.7l17.1,27.2c0.4,0.6,1.1,0.8,1.7,0.4
				c0.6-0.4,0.8-1.1,0.4-1.7L5.3,16.6z M53.7,14.1l-7.2-8.2l-6.4,8.2h8.7c0.7,0,1.3,0.6,1.3,1.3c0,0.7-0.6,1.3-1.3,1.3H38.6l-7,36.9
				l23.2-36.9h-2.2c-0.7,0-1.3-0.6-1.3-1.3c0-0.7,0.6-1.3,1.3-1.3H53.7z M36,16.6H24L30,48L36,16.6z M6.4,14.1H20l-6.4-8.2L6.4,14.1
				z M24.8,14.1h10.3L30,6.3L24.8,14.1z M43.7,5.3H32.4l5.2,7.9L43.7,5.3z M27.7,5.3H16.3l6.1,7.9L27.7,5.3z"/>
			<path class="st5" d="M16.1,48.4c-0.2-0.4-0.6-0.6-1-0.6c-0.4,0-0.8,0.2-1,0.6l-1.3,2.1l-2.1,1.3c-0.4,0.2-0.6,0.6-0.6,1
				c0,0.4,0.2,0.8,0.6,1l2.1,1.3l1.3,2.1c0.2,0.4,0.6,0.6,1,0.6c0.4,0,0.8-0.2,1-0.6l1.3-2.1l2.1-1.3c0.4-0.2,0.6-0.6,0.6-1
				c0-0.4-0.2-0.8-0.6-1l-2.1-1.3L16.1,48.4z M15,51.4l0.4,0.7c0.1,0.1,0.2,0.3,0.4,0.4l0.7,0.4l-0.7,0.4c-0.1,0.1-0.3,0.2-0.4,0.4
				L15,54.3l-0.4-0.7c-0.1-0.1-0.2-0.3-0.4-0.4l-0.7-0.4l0.7-0.4c0.1-0.1,0.3-0.2,0.4-0.4L15,51.4z"/>
			<path class="st5" d="M8.6,33.4c-0.2-0.4-0.6-0.6-1-0.6c-0.4,0-0.8,0.2-1,0.6l-1.3,2.1l-2.1,1.3c-0.4,0.2-0.6,0.6-0.6,1
				c0,0.4,0.2,0.8,0.6,1l2.1,1.3l1.3,2.1c0.2,0.4,0.6,0.6,1,0.6c0.4,0,0.8-0.2,1-0.6l1.3-2.1l2.1-1.3c0.4-0.2,0.6-0.6,0.6-1
				c0-0.4-0.2-0.8-0.6-1l-2.1-1.3L8.6,33.4z M7.5,36.4l0.4,0.7c0.1,0.1,0.2,0.3,0.4,0.4L9,37.9l-0.7,0.4c-0.1,0.1-0.3,0.2-0.4,0.4
				l-0.4,0.7l-0.4-0.7c-0.1-0.1-0.2-0.3-0.4-0.4L6,37.9l0.7-0.4c0.1-0.1,0.3-0.2,0.4-0.4L7.5,36.4z"/>
			<path class="st5" d="M52.3,39.7c-0.2-0.4-0.6-0.6-1-0.6c-0.4,0-0.8,0.2-1,0.6l-1.3,2.1l-2.1,1.3c-0.4,0.2-0.6,0.6-0.6,1
				c0,0.4,0.2,0.8,0.6,1l2.1,1.3l1.3,2.1c0.2,0.4,0.6,0.6,1,0.6c0.4,0,0.8-0.2,1-0.6l1.3-2.1l2.1-1.3c0.4-0.2,0.6-0.6,0.6-1
				c0-0.4-0.2-0.8-0.6-1l-2.1-1.3L52.3,39.7z M51.3,42.7l0.4,0.7c0.1,0.1,0.2,0.3,0.4,0.4l0.7,0.4l-0.7,0.4
				c-0.1,0.1-0.3,0.2-0.4,0.4l-0.4,0.7l-0.4-0.7c-0.1-0.1-0.2-0.3-0.4-0.4l-0.7-0.4l0.7-0.4c0.1-0.1,0.3-0.2,0.4-0.4L51.3,42.7z"/>
		</g>
	</g>
</g>
</svg>
