<?xml version="1.0" encoding="utf-8"?>
<!-- Generator: Adobe Illustrator 27.7.0, SVG Export Plug-In . SVG Version: 6.00 Build 0)  -->
<svg version="1.1" id="Layer_1" xmlns="http://www.w3.org/2000/svg" xmlns:xlink="http://www.w3.org/1999/xlink" x="0px" y="0px"
	 viewBox="0 0 60 61" style="enable-background:new 0 0 60 61;" xml:space="preserve">
<style type="text/css">
	.st0{clip-path:url(#SVGID_00000062168881420098230450000013304697926665988510_);}
	.st1{clip-path:url(#SVGID_00000086687440375012448070000009371323960454428076_);}
	.st2{fill-rule:evenodd;clip-rule:evenodd;fill:#FDF0EA;}
	.st3{fill-rule:evenodd;clip-rule:evenodd;fill:#FFFFFF;}
	.st4{fill-rule:evenodd;clip-rule:evenodd;fill:#FFD9A2;}
	.st5{fill:#FFD9A2;}
</style>
<g>
	<defs>
		<rect id="SVGID_1_" y="0.1" width="60" height="60"/>
	</defs>
	<clipPath id="SVGID_00000142136229167411563020000009122439653212887948_">
		<use xlink:href="#SVGID_1_"  style="overflow:visible;"/>
	</clipPath>
	<g style="clip-path:url(#SVGID_00000142136229167411563020000009122439653212887948_);">
		<g>
			<defs>
				<rect id="SVGID_00000118372233942735210190000003209083035341663158_" y="0.1" width="60" height="60"/>
			</defs>
			<clipPath id="SVGID_00000077300598440169757170000015397753887389674172_">
				<use xlink:href="#SVGID_00000118372233942735210190000003209083035341663158_"  style="overflow:visible;"/>
			</clipPath>
			<g style="clip-path:url(#SVGID_00000077300598440169757170000015397753887389674172_);">
				<path class="st2" d="M30.1,4c-9,0-16.3,7.3-16.3,16.3c0,5.7,3,10.9,7.7,13.8c0.8,0.5,1.6,1.5,1.7,2.4l0.4,2.2
					c0.2,0.9,1,1.6,1.9,1.6h8.8c0.9,0,1.8-0.7,1.9-1.6l0.4-2.2c0.2-0.9,1-1.9,1.7-2.4c4.8-2.9,7.7-8.2,7.7-13.8
					C46.3,11.3,39,4,30.1,4z"/>
				<path class="st3" d="M23.6,48.1l12.8,0.1l-1.1,6.6c-0.2,1.1-1.1,1.9-2.2,1.9h-6.3c-1.1,0-2-0.8-2.2-1.9L23.6,48.1z"/>
				<path class="st2" d="M23.2,45.3h13.8c0.3,0,0.7,0.1,0.9,0.4c0.2,0.2,0.4,0.6,0.4,0.9v1.3c0,0.7-0.6,1.3-1.3,1.3H23.2
					c-0.3,0-0.7-0.1-0.9-0.4c-0.2-0.2-0.4-0.6-0.4-0.9v-1.3C21.9,45.9,22.5,45.3,23.2,45.3z"/>
				<path class="st3" d="M30.1,4c-3.1,0-5.6,7.3-5.6,16.3c0,5.7,1,10.9,2.7,13.8c0.3,0.5,0.5,1.5,0.6,2.4l0.2,2.2
					c0.1,0.9,0.3,1.6,0.7,1.6h3c0.3,0,0.6-0.7,0.7-1.6l0.2-2.2c0.1-0.9,0.3-1.9,0.6-2.4c1.7-2.9,2.7-8.2,2.7-13.8
					C35.7,11.3,33.2,4,30.1,4z"/>
				<path class="st2" d="M11.5,38.7c-0.7-0.6-1.6-1-2.5-1c-2.2,0-3.9,1.8-3.9,4.1c0,2.2,1.7,4.1,3.9,4.1h5.5c1.7,0,3.1-1.5,3.1-3.3
					c0-1.8-1.4-3.3-3.1-3.3c-0.7,0-1.3,0.2-1.8,0.6L11.5,38.7z"/>
				<path class="st3" d="M51.8,30.3c0.5-0.4,1.1-0.7,1.8-0.7c1.5,0,2.7,1.3,2.7,2.8c0,1.6-1.2,2.8-2.7,2.8h-3.8
					c-1.2,0-2.2-1-2.2-2.3c0-1.3,1-2.3,2.2-2.3c0.5,0,0.9,0.2,1.3,0.4L51.8,30.3z"/>
				<path class="st4" d="M22.7,50.3l0.8,4.6c0.3,1.7,1.7,2.9,3.4,2.9h6.3c1.7,0,3.1-1.2,3.4-2.9l0.8-4.6c1.2-0.2,2.1-1.2,2.1-2.5
					v-1.3c0-0.7-0.3-1.3-0.7-1.8c-0.5-0.5-1.1-0.7-1.8-0.7h-0.6v-3.1c0.7-0.5,1.1-1.2,1.3-2l0.4-2.2c0.1-0.6,0.7-1.2,1.2-1.6
					c5.1-3.2,8.3-8.8,8.3-14.9v0c0-9.7-7.8-17.5-17.5-17.5c-9.7,0-17.5,7.8-17.5,17.5v0c0,0.6,0,1.1,0.1,1.7
					c0.1,0.7,0.7,1.2,1.4,1.1c0.7-0.1,1.2-0.7,1.1-1.4c0-0.5-0.1-1-0.1-1.4c0-6.9,4.6-12.7,11-14.5c-1.7,3-2.8,8.4-2.8,14.5v0
					c0,5.9,1.1,11.4,2.8,14.4c0.2,0.4,0.4,1.2,0.4,1.8l0.2,2.2c0,0.1,0,0.2,0,0.3h-1c-0.3,0-0.7-0.2-0.7-0.6l-0.4-2.2
					c-0.2-1.2-1.3-2.6-2.3-3.2c-2.1-1.3-3.8-3-5-5c-0.4-0.6-1.1-0.8-1.7-0.4c-0.6,0.4-0.8,1.1-0.4,1.7c1.4,2.4,3.4,4.4,5.8,5.9
					c0.5,0.3,1.1,1,1.2,1.6l0.4,2.2c0.2,0.8,0.6,1.5,1.3,2V44h-0.6c-1.4,0-2.5,1.1-2.5,2.5v1.3c0,0.7,0.3,1.3,0.7,1.8
					C21.8,49.9,22.2,50.2,22.7,50.3z M34.8,50.3h-0.4c-0.7,0-1.3-0.6-1.3-1.3c0-0.7,0.6-1.3,1.3-1.3h2.5v-1.2c-0.1,0-0.2-0.1,0-0.1
					H23.2v1.2c0.1,0,0.2,0.1,0,0.1h7.2c0.7,0,1.3,0.6,1.3,1.3c0,0.7-0.6,1.3-1.3,1.3h-5.1l0.7,4.2c0.1,0.5,0.5,0.8,1,0.8h6.3
					c0.5,0,0.9-0.3,1-0.8L34.8,50.3z M28.8,44v-2.5h-2.5V44H28.8z M33.8,44v-2.5h-2.5V44H33.8z M30.1,5.3c0.3,0,0.6,0.2,0.9,0.5
					c0.5,0.4,0.9,1.1,1.3,1.9c1.3,2.8,2.2,7.4,2.2,12.6c0,5.4-0.9,10.4-2.5,13.2c-0.3,0.6-0.7,1.8-0.8,2.9L31,38.6
					c0,0.1,0,0.3-0.1,0.4h-1.7c0-0.1-0.1-0.3-0.1-0.4L29,36.4c-0.1-1.1-0.4-2.3-0.8-2.9c-1.6-2.8-2.5-7.8-2.5-13.2
					c0-5.2,0.8-9.7,2.2-12.6c0.4-0.8,0.8-1.5,1.3-1.9C29.4,5.5,29.7,5.3,30.1,5.3z M34.1,5.8c1.7,3,2.8,8.4,2.8,14.5v0
					c0,5.9-1.1,11.4-2.8,14.4c-0.2,0.4-0.4,1.2-0.4,1.8l-0.2,2.2c0,0.1,0,0.2,0,0.3h1c0.3,0,0.7-0.2,0.7-0.6l0.4-2.2
					c0.2-1.2,1.3-2.6,2.3-3.2c4.4-2.7,7.1-7.5,7.2-12.8C45.1,13.4,40.4,7.6,34.1,5.8z"/>
				<path class="st4" d="M12.4,37.9C12.4,37.9,12.3,37.8,12.4,37.9c-1-0.9-2.2-1.4-3.4-1.4c-2.8,0-5.2,2.4-5.2,5.3
					c0,2.9,2.3,5.3,5.2,5.3h5.5c2.4,0,4.4-2,4.4-4.5s-2-4.5-4.4-4.5c-0.5,0-1.1,0.1-1.5,0.3L12.4,37.9z M10.6,39.6l1.1,1.2
					c0.4,0.5,1.1,0.5,1.7,0.2c0.3-0.2,0.7-0.3,1.1-0.3c1.1,0,1.9,0.9,1.9,2c0,1.1-0.8,2-1.9,2H9c-1.5,0-2.7-1.3-2.7-2.8
					C6.3,40.3,7.5,39,9,39C9.6,39,10.1,39.3,10.6,39.6L10.6,39.6z"/>
				<path class="st4" d="M51,29.3l-0.3,0.3c-0.3-0.1-0.6-0.1-1-0.1c-1.9,0-3.4,1.6-3.4,3.5s1.6,3.5,3.4,3.5h3.8c2.2,0,4-1.8,4-4.1
					c0-2.3-1.8-4.1-4-4.1C52.6,28.3,51.7,28.7,51,29.3z M52.7,31.2c0.2-0.2,0.6-0.3,0.9-0.3c0.8,0,1.5,0.7,1.5,1.6
					c0,0.9-0.7,1.6-1.5,1.6h-3.8c-0.5,0-0.9-0.5-0.9-1s0.4-1,0.9-1c0.2,0,0.4,0.1,0.5,0.2c0.5,0.4,1.2,0.3,1.7-0.2L52.7,31.2
					L52.7,31.2z"/>
				<path class="st5" d="M14.6,26.5c0.7,0,1.3-0.6,1.3-1.3S15.3,24,14.6,24s-1.3,0.6-1.3,1.3S13.9,26.5,14.6,26.5z"/>
			</g>
		</g>
	</g>
</g>
</svg>
