<?xml version="1.0" encoding="utf-8"?>
<!-- Generator: Adobe Illustrator 27.7.0, SVG Export Plug-In . SVG Version: 6.00 Build 0)  -->
<svg version="1.1" id="Layer_1" xmlns="http://www.w3.org/2000/svg" xmlns:xlink="http://www.w3.org/1999/xlink" x="0px" y="0px"
	 viewBox="0 0 60 61" style="enable-background:new 0 0 60 61;" xml:space="preserve">
<style type="text/css">
	.st0{clip-path:url(#SVGID_00000077311183076303061170000001543456735301776803_);}
	.st1{clip-path:url(#SVGID_00000042716451436273871540000013604246079992024499_);}
	.st2{fill:#FFFFFF;}
	.st3{fill:#FDF0EA;}
	.st4{fill:#FFD9A2;}
	.st5{fill-rule:evenodd;clip-rule:evenodd;fill:#FFD9A2;}
</style>
<g>
	<defs>
		<rect id="SVGID_1_" y="0.1" width="60" height="60"/>
	</defs>
	<clipPath id="SVGID_00000046338641014599484870000018022350703657546927_">
		<use xlink:href="#SVGID_1_"  style="overflow:visible;"/>
	</clipPath>
	<g style="clip-path:url(#SVGID_00000046338641014599484870000018022350703657546927_);">
		<g>
			<defs>
				<rect id="SVGID_00000013876739161356642410000016129008028840906406_" y="0.1" width="60" height="60"/>
			</defs>
			<clipPath id="SVGID_00000177465577312189193050000006094835616146976435_">
				<use xlink:href="#SVGID_00000013876739161356642410000016129008028840906406_"  style="overflow:visible;"/>
			</clipPath>
			<g style="clip-path:url(#SVGID_00000177465577312189193050000006094835616146976435_);">
				<path class="st2" d="M38.8,31.9v23.3c0,1-1.1,1.6-2,1L30,51.3l-6.7,4.9c-0.9,0.6-2,0-2-1V31.9H38.8z"/>
				<path class="st3" d="M30,38.9c9.6,0,17.5-7.8,17.5-17.5C47.5,11.8,39.7,4,30,4s-17.5,7.8-17.5,17.5C12.6,31.1,20.4,38.9,30,38.9
					z"/>
				<path class="st2" d="M31.3,12.9l1.2,3.9c0.1,0.5,0.6,0.9,1.2,0.9h4c1.2,0,1.7,1.5,0.7,2.2l-3.2,2.4c-0.5,0.4-0.6,0.9-0.5,1.4
					l1.2,3.9c0.4,1.1-1,2.1-1.9,1.4l-3.2-2.4c-0.5-0.4-1-0.4-1.5,0l-3.2,2.4c-1,0.7-2.2-0.2-1.9-1.4l1.2-3.9c0.1-0.5,0-1.1-0.5-1.4
					l-3.2-2.4c-1-0.7-0.5-2.2,0.7-2.2h4c0.5,0,1-0.4,1.2-0.9l1.2-3.9C29.2,11.8,30.9,11.8,31.3,12.9z"/>
				<path class="st4" d="M13.3,27.6c0.7,0,1.2-0.6,1.2-1.2c0-0.7-0.6-1.2-1.2-1.2c-0.7,0-1.2,0.6-1.2,1.2
					C12,27.1,12.6,27.6,13.3,27.6z"/>
				<path class="st5" d="M20.3,37.4c-2.7-1.7-5-4.1-6.5-7c-0.3-0.6-0.1-1.4,0.5-1.7c0.6-0.3,1.4-0.1,1.7,0.5
					c2.7,5.1,8.1,8.5,14.3,8.5c9,0,16.2-7.3,16.2-16.2c0-4.1-1.5-7.8-4-10.7C42,10.4,42,9.6,42.5,9.2c0.5-0.5,1.3-0.4,1.8,0.1
					c2.9,3.3,4.6,7.6,4.6,12.3c0,6.7-3.5,12.5-8.7,15.8v12.9c0,0.7-0.6,1.3-1.3,1.3c-0.7,0-1.3-0.6-1.3-1.3V38.8
					c-2.3,1-4.8,1.6-7.5,1.6c-2.7,0-5.2-0.6-7.5-1.6v16.7c0,0,0,0,0,0l6.7-4.9c0.4-0.3,1-0.3,1.5,0c0,0,6.7,4.9,6.7,4.9c0,0,0,0,0,0
					v-1.3c0-0.7,0.6-1.3,1.3-1.3c0.7,0,1.3,0.6,1.3,1.3v1.3c0,2-2.2,3.3-4,2l0,0l-6-4.3l-6,4.3l0,0c-1.7,1.2-4,0-4-2V37.4z
					 M14.1,22.8c0,0.7-0.5,1.3-1.2,1.3c-0.7,0.1-1.3-0.5-1.3-1.2c0-0.4,0-0.9,0-1.3c0-10.3,8.4-18.7,18.7-18.7c4,0,7.7,1.2,10.7,3.4
					c0.6,0.4,0.7,1.2,0.3,1.7c-0.4,0.6-1.2,0.7-1.7,0.3c-2.6-1.8-5.8-2.9-9.3-2.9c-9,0-16.2,7.3-16.2,16.2C14,22,14,22.4,14.1,22.8z
					 M26.7,16.6c0,0,0.1-0.1,0.1-0.1c0,0,1.2-3.6,1.2-3.6c0.2-1,0.8-1.5,1.7-1.7c1.1-0.3,2.5,0.3,3,1.6l1.2,3.9c0,0,0,0,0.1,0h4
					c1.2,0,2.1,0.8,2.4,1.7c0.3,0.9,0.1,2.1-0.9,2.8c0,0-3.2,2.4-3.2,2.4c0,0,0,0,0,0c0,0,1.2,3.8,1.2,3.8c0.4,1.1-0.1,2.2-0.9,2.8
					c-0.8,0.6-2,0.7-2.9,0l-3.2-2.4l0,0l0,0l-3.2,2.4c-2,1.5-4.6-0.5-3.8-2.8c0,0,1.2-3.8,1.2-3.8c0,0,0,0,0,0l-3.3-2.4l0,0
					c-1-0.7-1.2-1.9-0.9-2.8c0.3-0.9,1.2-1.7,2.4-1.7H26.7z M22.8,19.1c0.2,0.1,3.2,2.3,3.2,2.3c1,0.5,1.3,1.7,1,2.7l0,0L25.7,28
					c0.5-0.4,3.2-2.3,3.2-2.3c0.5-0.4,1-0.5,1.5-0.5c0.5,0,1,0.2,1.5,0.5L35,28l-1.2-3.8l0,0c-0.2-1,0-1.9,1-2.7c0,0,3-2.2,3.2-2.4
					h-4c-1.2,0-2.2-0.8-2.4-1.8l-1.2-3.6l-1.2,3.7l0,0.1c-0.5,0.9-1.4,1.6-2.4,1.6H22.8z"/>
			</g>
		</g>
	</g>
</g>
</svg>
