<svg version="1.2" xmlns="http://www.w3.org/2000/svg" viewBox="0 0 100 100" width="100" height="100"><style></style><path  d="m7.8 26q-0.3 0-0.5 0.2-0.2 0.2-0.3 0.5-0.1 0.3 0 0.6 0.1 0.3 0.3 0.5l25.7 23.6v21.6c0 0.7 1 1.2 1.6 0.8l9.1-7.2 10.5 15q0.1 0.2 0.3 0.3 0.3 0.1 0.5 0.1 0.2 0 0.5-0.1 0.2-0.1 0.3-0.3l37-54q0.2-0.3 0.2-0.5 0-0.3-0.1-0.6-0.2-0.2-0.4-0.4-0.2-0.1-0.5-0.1h-84q0 0 0 0 0 0 0 0-0.1 0-0.1 0 0 0 0 0 0 0 0 0 0 0 0 0-0.1 0-0.1 0 0 0 0 0zm2.8 2h76.3l-52.7 21.8zm78.7 1.2l-34.3 50.1-19.5-27.9zm-54.3 25l7.6 10.8-7.6 6z"/></svg>