<svg xmlns="http://www.w3.org/2000/svg" width="18" height="18" viewBox="0 0 18 18">
    <g fill="none" fill-rule="evenodd" stroke="#434A54" stroke-width=".8">
        <path fill="#FFF" stroke-linecap="round" stroke-linejoin="round" d="M16.634 9.81l-.245-.33a1.02 1.02 0 0 1-.01-1.205l.239-.332a1.025 1.025 0 0 0-.365-1.508l-.364-.192a1.025 1.025 0 0 1-.54-1.083l.07-.4c.106-.61-.361-1.177-.994-1.203l-.414-.016a1.052 1.052 0 0 1-.967-.744l-.116-.39a1.055 1.055 0 0 0-1.427-.66l-.381.159a1.063 1.063 0 0 1-1.2-.26l-.274-.303a1.063 1.063 0 0 0-1.577.013l-.271.306a1.066 1.066 0 0 1-1.196.276l-.384-.156a1.059 1.059 0 0 0-1.418.683l-.109.393c-.12.43-.503.735-.954.758l-.414.023a1.037 1.037 0 0 0-.974 1.219l.077.4c.082.435-.13.874-.524 1.089l-.36.198a1.021 1.021 0 0 0-.339 1.512l.246.328c.265.358.271.842.01 1.206l-.239.332a1.025 1.025 0 0 0 .364 1.508l.365.192c.397.208.616.644.54 1.083l-.07.4c-.106.611.361 1.177.994 1.203l.414.016c.45.02.84.319.967.744l.116.39c.175.599.844.908 1.427.66l.381-.159a1.063 1.063 0 0 1 1.199.26l.275.303a1.063 1.063 0 0 0 1.576-.013l.272-.306a1.066 1.066 0 0 1 1.196-.276l.384.156a1.059 1.059 0 0 0 1.417-.683l.11-.393c.119-.43.503-.735.953-.758l.415-.023a1.037 1.037 0 0 0 .973-1.219l-.076-.4c-.083-.435.13-.874.523-1.089l.361-.198a1.02 1.02 0 0 0 .338-1.512z"/>
        <path fill="#1DBDC0" d="M4.944 7.624a1.324 1.324 0 1 1 2.65 0 1.324 1.324 0 1 1-2.65 0zM11.568 11.598a1.324 1.324 0 1 1 0-2.65 1.324 1.324 0 1 1 0 2.65z"/>
        <path stroke-linecap="round" stroke-linejoin="round" d="M6.687 11.598L11.154 6.3"/>
    </g>
</svg>
