<?xml version="1.0" encoding="utf-8"?>
<!-- Generator: Adobe Illustrator 27.7.0, SVG Export Plug-In . SVG Version: 6.00 Build 0)  -->
<svg version="1.1" id="Layer_1" xmlns="http://www.w3.org/2000/svg" xmlns:xlink="http://www.w3.org/1999/xlink" x="0px" y="0px"
	 viewBox="0 0 60 61" style="enable-background:new 0 0 60 61;" xml:space="preserve">
<style type="text/css">
	.st0{clip-path:url(#SVGID_00000040561592500545910310000006037094841383325354_);}
	.st1{clip-path:url(#SVGID_00000106831798015621937850000006735037847021074575_);}
	.st2{fill-rule:evenodd;clip-rule:evenodd;fill:#FDF0EA;}
	.st3{fill-rule:evenodd;clip-rule:evenodd;fill:#FFFFFF;}
	.st4{fill-rule:evenodd;clip-rule:evenodd;fill:#FFD9A2;}
</style>
<g>
	<defs>
		<rect id="SVGID_1_" y="0.1" width="60" height="60"/>
	</defs>
	<clipPath id="SVGID_00000154428159953543709900000001231507703018071451_">
		<use xlink:href="#SVGID_1_"  style="overflow:visible;"/>
	</clipPath>
	<g style="clip-path:url(#SVGID_00000154428159953543709900000001231507703018071451_);">
		<g>
			<defs>
				<rect id="SVGID_00000009559228812203651700000017272936391906816674_" y="0.1" width="60" height="60"/>
			</defs>
			<clipPath id="SVGID_00000167397385144822683290000013196197110929181316_">
				<use xlink:href="#SVGID_00000009559228812203651700000017272936391906816674_"  style="overflow:visible;"/>
			</clipPath>
			<g style="clip-path:url(#SVGID_00000167397385144822683290000013196197110929181316_);">
				<path class="st2" d="M56.4,31.3c0,0.8-0.5,1.5-1.3,1.8c-1.8,0.5-3.1,2.2-3.1,4.2c0,2,1.3,3.6,3.1,4.2c0.8,0.2,1.3,1,1.3,1.8
					c0,0.9,0,1.9,0,2.8c0,1-0.8,1.9-1.9,1.9c-8.2,0-40.6,0-48.8,0c-1,0-1.9-0.8-1.9-1.9c0-0.9,0-2,0-2.8c0-0.8,0.5-1.5,1.3-1.8
					c1.8-0.5,3.1-2.2,3.1-4.2c0-2-1.3-3.6-3.1-4.2c-0.8-0.2-1.3-1-1.3-1.8c0-0.6,0-1.3,0-1.9c0-0.8,0.5-1.5,1.3-1.8
					c1.8-0.5,3.1-2.2,3.1-4.2c0-2-1.3-3.6-3.1-4.2c-0.8-0.2-1.3-1-1.3-1.8c0-0.9,0-1.9,0-2.8c0-1,0.8-1.9,1.9-1.9h48.8
					c1,0,1.9,0.8,1.9,1.9v2.8c0,0.8-0.5,1.5-1.3,1.8c-1.8,0.5-3.1,2.2-3.1,4.2c0,2,1.3,3.6,3.1,4.2c0.8,0.2,1.3,1,1.3,1.8
					C56.4,30,56.4,30.7,56.4,31.3z"/>
				<path class="st3" d="M32.2,23.7c0.3-0.5,0.9-0.9,1.6-0.9c0.6,0,1.2,0.3,1.6,0.9c0.3,0.5,0.7,1,0.9,1.4c0.3,0.4,0.6,0.7,1.1,0.8
					c0.4,0.1,1,0.3,1.6,0.4c0.6,0.2,1.1,0.6,1.3,1.2c0.2,0.6,0.1,1.3-0.3,1.8c-0.4,0.5-0.8,0.9-1,1.3c-0.3,0.4-0.4,0.8-0.4,1.3
					c0,0.4,0,1,0.1,1.6c0,0.6-0.3,1.2-0.8,1.6c-0.5,0.4-1.2,0.5-1.8,0.2c-0.6-0.2-1.1-0.4-1.5-0.6c-0.4-0.2-0.9-0.2-1.3,0
					c-0.4,0.2-1,0.4-1.5,0.6c-0.6,0.2-1.3,0.1-1.8-0.2c-0.5-0.4-0.8-1-0.8-1.6c0-0.6,0.1-1.2,0.1-1.6c0-0.5-0.1-0.9-0.4-1.3
					c-0.3-0.3-0.6-0.8-1-1.3c-0.4-0.5-0.5-1.2-0.3-1.8c0.2-0.6,0.7-1.1,1.3-1.2c0.6-0.2,1.2-0.3,1.6-0.4c0.4-0.1,0.8-0.4,1.1-0.8
					C31.5,24.7,31.8,24.3,32.2,23.7z"/>
				<path class="st4" d="M22.6,46.6c0.7,0,1.3,0.6,1.3,1.3c0,0.7-0.6,1.3-1.3,1.3c-0.7,0-1.3-0.6-1.3-1.3
					C21.4,47.2,21.9,46.6,22.6,46.6z M52.6,14.1h1.9c0.3,0,0.6,0.3,0.6,0.6v2.8c0,0.3-0.2,0.5-0.4,0.6c-2.3,0.7-4,2.8-4,5.4
					c0,2.5,1.7,4.7,3.9,5.4c0.2,0.1,0.4,0.3,0.4,0.6c0,0,0,0,0,0.1c0,0.6,0,1.2,0,1.8c0,0.3-0.2,0.5-0.4,0.6c-2.3,0.7-4,2.8-4,5.4
					c0,2.5,1.7,4.7,3.9,5.4c0.2,0.1,0.4,0.3,0.4,0.6v0c0,0.8,0,1.9,0,2.8c0,0.3-0.3,0.6-0.6,0.6H26.4c-0.7,0-1.3,0.6-1.3,1.3
					c0,0.7,0.6,1.3,1.3,1.3h28.1c1.7,0,3.1-1.4,3.1-3.1c0-0.9,0-2,0-2.8c0-1.3-0.9-2.5-2.2-2.9c0,0,0,0,0,0c-1.3-0.4-2.2-1.6-2.2-3
					c0-1.4,0.9-2.6,2.2-3c0,0,0,0,0,0c1.3-0.4,2.2-1.6,2.2-3c0-0.6,0-1.3,0-1.9c0-1.3-0.9-2.5-2.2-2.9c0,0,0,0,0,0
					c-1.3-0.4-2.2-1.6-2.2-3c0-1.4,0.9-2.6,2.2-3c0,0,0,0,0,0c1.3-0.4,2.2-1.6,2.2-3v-2.8c0-1.7-1.4-3.1-3.1-3.1h-1.9
					c-0.7,0-1.3,0.6-1.3,1.3C51.4,13.6,51.9,14.1,52.6,14.1z M17.6,46.6v-3.1c0-0.7-0.6-1.3-1.3-1.3c-0.7,0-1.3,0.6-1.3,1.3v3.1H5.7
					c-0.3,0-0.6-0.3-0.6-0.6v-2.8c0-0.3,0.2-0.5,0.4-0.6c2.3-0.7,4-2.8,4-5.4c0-2.5-1.7-4.7-3.9-5.4c-0.2-0.1-0.4-0.3-0.4-0.6
					c0,0,0,0,0-0.1c0-0.6,0-1.2,0-1.8c0-0.3,0.2-0.5,0.4-0.6c2.3-0.7,4-2.8,4-5.4c0-2.5-1.7-4.7-3.9-5.4c-0.2-0.1-0.4-0.3-0.4-0.6
					c0,0,0,0,0,0c0-0.8,0-1.9,0-2.8c0-0.3,0.3-0.6,0.6-0.6h9.4v4.4c0,0.7,0.6,1.3,1.3,1.3c0.7,0,1.3-0.6,1.3-1.3v-4.4h31.3
					c0.7,0,1.3-0.6,1.3-1.3c0-0.7-0.6-1.3-1.3-1.3c0,0-36.3,0-43.1,0c-1.7,0-3.1,1.4-3.1,3.1c0,0.9,0,2,0,2.8c0,1.3,0.9,2.5,2.2,2.9
					c0,0,0,0,0,0C6,20.9,7,22.1,7,23.5c0,1.4-0.9,2.6-2.2,3c0,0,0,0,0,0c-1.3,0.4-2.2,1.6-2.2,3c0,0.6,0,1.3,0,1.9
					c0,1.3,0.9,2.5,2.2,2.9c0,0,0,0,0,0C6,34.7,7,35.8,7,37.2c0,1.4-0.9,2.6-2.2,3c0,0,0,0,0,0c-1.3,0.4-2.2,1.6-2.2,3V46
					c0,1.7,1.4,3.1,3.1,3.1h13.1c0.7,0,1.3-0.6,1.3-1.3c0-0.7-0.6-1.3-1.3-1.3H17.6z M15.1,33.5v5c0,0.7,0.6,1.3,1.3,1.3
					c0.7,0,1.3-0.6,1.3-1.3v-5c0-0.7-0.6-1.3-1.3-1.3C15.7,32.2,15.1,32.8,15.1,33.5z M15.1,23.5v5c0,0.7,0.6,1.3,1.3,1.3
					c0.7,0,1.3-0.6,1.3-1.3v-5c0-0.7-0.6-1.3-1.3-1.3C15.7,22.2,15.1,22.8,15.1,23.5z"/>
				<path class="st4" d="M31.2,23.3l-0.9,1.4c-0.1,0.1-0.2,0.2-0.4,0.3l-1.6,0.4c-1,0.3-1.8,1-2.2,2.1c-0.3,1-0.1,2.1,0.5,2.9l1,1.3
					c0.1,0.1,0.1,0.3,0.1,0.4l-0.1,1.6c-0.1,1.1,0.4,2.1,1.3,2.7c0.9,0.6,2,0.8,3,0.4l1.5-0.6c0.1-0.1,0.3-0.1,0.4,0l1.5,0.6
					c1,0.4,2.1,0.2,3-0.4c0.9-0.6,1.3-1.6,1.3-2.7L39.7,32c0-0.2,0-0.3,0.1-0.4l1-1.3c0.7-0.8,0.9-1.9,0.5-2.9
					c-0.3-1-1.1-1.8-2.2-2.1l-1.6-0.4c-0.1,0-0.3-0.1-0.4-0.3l-0.9-1.4c-0.6-0.9-1.6-1.4-2.6-1.4C32.8,21.9,31.8,22.4,31.2,23.3z
					 M33.3,24.7c0.1-0.2,0.3-0.3,0.5-0.3c0.2,0,0.4,0.1,0.5,0.3l0.9,1.4c0.4,0.6,1.1,1.1,1.8,1.3l1.6,0.4c0.2,0.1,0.4,0.2,0.4,0.4
					c0.1,0.2,0,0.4-0.1,0.6l-1,1.3c-0.5,0.6-0.7,1.3-0.7,2.1l0.1,1.6c0,0.2-0.1,0.4-0.3,0.5c-0.2,0.1-0.4,0.2-0.6,0.1L35,33.8
					c-0.7-0.3-1.5-0.3-2.2,0l-1.5,0.6c-0.2,0.1-0.4,0-0.6-0.1c-0.2-0.1-0.3-0.3-0.3-0.5l0.1-1.6c0-0.8-0.2-1.5-0.7-2.1l-1-1.3
					c-0.1-0.2-0.2-0.4-0.1-0.6c0.1-0.2,0.2-0.4,0.4-0.4l1.6-0.4c0.7-0.2,1.4-0.7,1.8-1.3L33.3,24.7z"/>
			</g>
		</g>
	</g>
</g>
</svg>
